<svg xmlns="http://www.w3.org/2000/svg" xmlns:xlink="http://www.w3.org/1999/xlink" width="500" zoomAndPan="magnify" viewBox="0 0 375 374.999991" height="500" preserveAspectRatio="xMidYMid meet" version="1.0"><defs><clipPath id="bea70ec9ea"><path d="M 9 23 L 370 23 L 370 351.972656 L 9 351.972656 Z M 9 23 " clip-rule="nonzero"/></clipPath><clipPath id="a6ece4007f"><path d="M 298 239 L 370.171875 239 L 370.171875 311 L 298 311 Z M 298 239 " clip-rule="nonzero"/></clipPath></defs><g clip-path="url(#bea70ec9ea)"><path fill="#ffa684" d="M 43.347656 352.21875 C 38.945312 352.21875 34.375 351.371094 30.144531 349.507812 C 12.875 342.230469 4.921875 322.253906 12.199219 305.15625 L 103.617188 89.988281 C 105.140625 86.601562 107 83.386719 109.539062 80.675781 L 110.386719 79.660156 C 118.003906 71.027344 129.515625 66.964844 140.859375 68.828125 C 152.203125 70.691406 161.851562 78.136719 166.589844 88.632812 L 211.285156 190.207031 L 302.699219 40.046875 C 308.117188 31.074219 317.425781 25.152344 327.921875 23.964844 C 338.417969 22.78125 348.746094 26.675781 356.023438 34.125 L 358.226562 36.492188 C 364.152344 42.757812 367.535156 50.882812 367.707031 59.515625 L 369.398438 181.914062 C 369.738281 200.535156 354.671875 215.941406 336.050781 216.277344 C 317.425781 216.617188 302.023438 201.550781 301.683594 182.929688 L 301.515625 171.925781 L 235.492188 280.4375 C 228.890625 291.273438 216.871094 297.367188 204.34375 296.519531 C 191.816406 295.675781 180.640625 287.886719 175.5625 276.375 L 135.949219 186.652344 L 74.328125 331.5625 C 68.910156 344.429688 56.382812 352.21875 43.347656 352.21875 Z M 43.347656 352.21875 " fill-opacity="1" fill-rule="nonzero"/></g><g clip-path="url(#a6ece4007f)"><path fill="#ffa684" d="M 370.078125 275.019531 C 370.078125 276.1875 370.019531 277.347656 369.90625 278.507812 C 369.792969 279.664062 369.621094 280.816406 369.394531 281.957031 C 369.167969 283.097656 368.882812 284.226562 368.546875 285.339844 C 368.207031 286.457031 367.816406 287.550781 367.371094 288.625 C 366.925781 289.703125 366.425781 290.753906 365.878906 291.78125 C 365.328125 292.808594 364.730469 293.804688 364.085938 294.773438 C 363.4375 295.742188 362.746094 296.675781 362.007812 297.574219 C 361.269531 298.472656 360.488281 299.335938 359.664062 300.160156 C 358.839844 300.984375 357.980469 301.765625 357.078125 302.503906 C 356.179688 303.242188 355.246094 303.933594 354.277344 304.582031 C 353.308594 305.226562 352.3125 305.824219 351.285156 306.375 C 350.257812 306.921875 349.207031 307.421875 348.128906 307.867188 C 347.054688 308.3125 345.960938 308.703125 344.84375 309.042969 C 343.730469 309.378906 342.601562 309.660156 341.460938 309.890625 C 340.320312 310.117188 339.167969 310.285156 338.011719 310.402344 C 336.851562 310.515625 335.691406 310.570312 334.527344 310.570312 C 333.363281 310.570312 332.199219 310.515625 331.042969 310.402344 C 329.882812 310.285156 328.730469 310.117188 327.589844 309.890625 C 326.449219 309.660156 325.320312 309.378906 324.207031 309.042969 C 323.089844 308.703125 321.996094 308.3125 320.921875 307.867188 C 319.84375 307.421875 318.792969 306.921875 317.765625 306.375 C 316.742188 305.824219 315.742188 305.226562 314.773438 304.582031 C 313.808594 303.933594 312.871094 303.242188 311.972656 302.503906 C 311.074219 301.765625 310.210938 300.984375 309.386719 300.160156 C 308.5625 299.335938 307.785156 298.472656 307.042969 297.574219 C 306.304688 296.675781 305.613281 295.742188 304.964844 294.773438 C 304.320312 293.804688 303.722656 292.808594 303.171875 291.78125 C 302.625 290.753906 302.125 289.703125 301.679688 288.625 C 301.234375 287.550781 300.84375 286.457031 300.503906 285.339844 C 300.167969 284.226562 299.886719 283.097656 299.65625 281.957031 C 299.429688 280.816406 299.261719 279.664062 299.144531 278.507812 C 299.03125 277.347656 298.976562 276.1875 298.976562 275.019531 C 298.976562 273.855469 299.03125 272.695312 299.144531 271.535156 C 299.261719 270.378906 299.429688 269.226562 299.65625 268.085938 C 299.886719 266.945312 300.167969 265.816406 300.503906 264.703125 C 300.84375 263.585938 301.234375 262.492188 301.679688 261.417969 C 302.125 260.339844 302.625 259.289062 303.171875 258.261719 C 303.722656 257.234375 304.320312 256.238281 304.964844 255.269531 C 305.613281 254.300781 306.304688 253.367188 307.042969 252.46875 C 307.785156 251.566406 308.5625 250.707031 309.386719 249.882812 C 310.210938 249.058594 311.074219 248.277344 311.972656 247.539062 C 312.871094 246.800781 313.808594 246.109375 314.773438 245.460938 C 315.742188 244.816406 316.742188 244.21875 317.765625 243.667969 C 318.792969 243.121094 319.84375 242.621094 320.921875 242.175781 C 321.996094 241.730469 323.089844 241.339844 324.207031 241 C 325.320312 240.664062 326.449219 240.382812 327.589844 240.152344 C 328.730469 239.925781 329.882812 239.757812 331.042969 239.640625 C 332.199219 239.527344 333.363281 239.472656 334.527344 239.46875 C 335.691406 239.472656 336.851562 239.527344 338.011719 239.640625 C 339.167969 239.757812 340.320312 239.925781 341.460938 240.152344 C 342.601562 240.382812 343.730469 240.664062 344.84375 241 C 345.960938 241.339844 347.054688 241.730469 348.128906 242.175781 C 349.207031 242.621094 350.257812 243.121094 351.285156 243.667969 C 352.3125 244.21875 353.308594 244.816406 354.277344 245.460938 C 355.246094 246.109375 356.179688 246.800781 357.078125 247.539062 C 357.980469 248.277344 358.839844 249.058594 359.664062 249.882812 C 360.488281 250.707031 361.269531 251.566406 362.007812 252.46875 C 362.746094 253.367188 363.4375 254.300781 364.085938 255.269531 C 364.730469 256.238281 365.328125 257.234375 365.878906 258.261719 C 366.425781 259.289062 366.925781 260.339844 367.371094 261.417969 C 367.816406 262.492188 368.207031 263.585938 368.546875 264.703125 C 368.882812 265.816406 369.167969 266.945312 369.394531 268.085938 C 369.621094 269.226562 369.792969 270.378906 369.90625 271.535156 C 370.019531 272.695312 370.078125 273.855469 370.078125 275.019531 Z M 370.078125 275.019531 " fill-opacity="1" fill-rule="nonzero"/></g></svg>